<svg xmlns="http://www.w3.org/2000/svg" xmlns:xlink="http://www.w3.org/1999/xlink" width="500" zoomAndPan="magnify" viewBox="0 0 375 374.999991" height="500" preserveAspectRatio="xMidYMid meet" version="1.0"><defs><g/><clipPath id="4778d5cfed"><path d="M 117 62.644531 L 263.855469 62.644531 L 263.855469 309.394531 L 117 309.394531 Z M 117 62.644531 " clip-rule="nonzero"/></clipPath><clipPath id="506f5271df"><path d="M 74 99 L 301 99 L 301 245 L 74 245 Z M 74 99 " clip-rule="nonzero"/></clipPath><clipPath id="647b235fe9"><path d="M 99.894531 70.628906 L 320.464844 157.332031 L 274.917969 273.203125 L 54.347656 186.496094 Z M 99.894531 70.628906 " clip-rule="nonzero"/></clipPath><clipPath id="439bdc7b8a"><path d="M 99.894531 70.628906 L 320.464844 157.332031 L 274.917969 273.203125 L 54.347656 186.496094 Z M 99.894531 70.628906 " clip-rule="nonzero"/></clipPath><clipPath id="dd5b03e1c5"><path d="M 73 152 L 88 152 L 88 168 L 73 168 Z M 73 152 " clip-rule="nonzero"/></clipPath><clipPath id="eb8df0183a"><path d="M 70.183594 155.761719 L 84.710938 149.679688 L 90.792969 164.210938 L 76.265625 170.289062 Z M 70.183594 155.761719 " clip-rule="nonzero"/></clipPath><clipPath id="5f70aeb691"><path d="M 70.183594 155.761719 L 84.710938 149.679688 L 90.792969 164.210938 L 76.265625 170.289062 Z M 70.183594 155.761719 " clip-rule="nonzero"/></clipPath><clipPath id="26abb2d85f"><path d="M 286 173 L 301 173 L 301 189 L 286 189 Z M 286 173 " clip-rule="nonzero"/></clipPath><clipPath id="0568a78b5a"><path d="M 283.164062 176.855469 L 297.691406 170.773438 L 303.773438 185.304688 L 289.246094 191.382812 Z M 283.164062 176.855469 " clip-rule="nonzero"/></clipPath><clipPath id="60672d1490"><path d="M 283.164062 176.855469 L 297.691406 170.773438 L 303.773438 185.304688 L 289.246094 191.382812 Z M 283.164062 176.855469 " clip-rule="nonzero"/></clipPath></defs><g clip-path="url(#4778d5cfed)"><path fill="#ffc5c5" d="M 117.511719 62.707031 L 263.828125 62.707031 L 263.828125 240.324219 C 263.828125 241.457031 263.800781 242.585938 263.746094 243.710938 C 263.691406 244.839844 263.609375 245.964844 263.496094 247.089844 C 263.386719 248.214844 263.25 249.335938 263.082031 250.453125 C 262.917969 251.570312 262.726562 252.679688 262.507812 253.789062 C 262.285156 254.898438 262.039062 256 261.765625 257.09375 C 261.492188 258.1875 261.191406 259.277344 260.867188 260.359375 C 260.539062 261.4375 260.183594 262.511719 259.804688 263.574219 C 259.425781 264.636719 259.019531 265.691406 258.589844 266.734375 C 258.160156 267.777344 257.703125 268.808594 257.222656 269.832031 C 256.738281 270.851562 256.234375 271.859375 255.703125 272.855469 C 255.171875 273.851562 254.617188 274.835938 254.039062 275.804688 C 253.460938 276.773438 252.855469 277.726562 252.230469 278.664062 C 251.605469 279.605469 250.957031 280.527344 250.285156 281.433594 C 249.617188 282.339844 248.921875 283.230469 248.207031 284.105469 C 247.492188 284.976562 246.757812 285.832031 246 286.667969 C 245.246094 287.503906 244.46875 288.324219 243.671875 289.121094 C 242.875 289.921875 242.0625 290.699219 241.226562 291.457031 C 240.390625 292.214844 239.539062 292.953125 238.667969 293.667969 C 237.796875 294.386719 236.910156 295.082031 236.007812 295.753906 C 235.101562 296.425781 234.179688 297.078125 233.246094 297.703125 C 232.308594 298.332031 231.355469 298.933594 230.390625 299.515625 C 229.425781 300.097656 228.445312 300.652344 227.453125 301.183594 C 226.460938 301.71875 225.453125 302.226562 224.433594 302.707031 C 223.417969 303.191406 222.386719 303.648438 221.347656 304.082031 C 220.308594 304.511719 219.257812 304.917969 218.195312 305.300781 C 217.136719 305.679688 216.066406 306.035156 214.988281 306.363281 C 213.910156 306.691406 212.828125 306.992188 211.734375 307.265625 C 210.640625 307.539062 209.542969 307.789062 208.4375 308.007812 C 207.332031 308.226562 206.222656 308.421875 205.109375 308.585938 C 203.996094 308.753906 202.878906 308.890625 201.757812 309 C 200.636719 309.113281 199.515625 309.195312 198.390625 309.25 C 197.265625 309.304688 196.140625 309.332031 195.011719 309.332031 L 186.332031 309.332031 C 185.203125 309.332031 184.078125 309.304688 182.953125 309.25 C 181.828125 309.195312 180.707031 309.113281 179.585938 309.003906 C 178.464844 308.890625 177.347656 308.753906 176.234375 308.585938 C 175.117188 308.421875 174.007812 308.230469 172.90625 308.007812 C 171.800781 307.789062 170.703125 307.542969 169.609375 307.265625 C 168.515625 306.992188 167.429688 306.691406 166.355469 306.363281 C 165.277344 306.035156 164.207031 305.683594 163.144531 305.300781 C 162.085938 304.921875 161.035156 304.515625 159.996094 304.082031 C 158.953125 303.648438 157.925781 303.191406 156.90625 302.710938 C 155.886719 302.226562 154.882812 301.71875 153.890625 301.1875 C 152.894531 300.65625 151.917969 300.097656 150.949219 299.519531 C 149.984375 298.9375 149.03125 298.332031 148.097656 297.707031 C 147.160156 297.078125 146.238281 296.429688 145.335938 295.753906 C 144.429688 295.082031 143.542969 294.386719 142.671875 293.671875 C 141.800781 292.957031 140.949219 292.21875 140.113281 291.460938 C 139.28125 290.699219 138.464844 289.921875 137.667969 289.125 C 136.871094 288.324219 136.09375 287.507812 135.339844 286.671875 C 134.582031 285.832031 133.847656 284.980469 133.132812 284.105469 C 132.417969 283.234375 131.726562 282.34375 131.054688 281.4375 C 130.382812 280.527344 129.734375 279.605469 129.109375 278.667969 C 128.484375 277.726562 127.878906 276.773438 127.300781 275.804688 C 126.722656 274.835938 126.167969 273.855469 125.636719 272.859375 C 125.105469 271.863281 124.597656 270.851562 124.117188 269.832031 C 123.636719 268.8125 123.179688 267.777344 122.75 266.734375 C 122.316406 265.691406 121.914062 264.636719 121.53125 263.574219 C 121.152344 262.511719 120.800781 261.441406 120.472656 260.359375 C 120.148438 259.277344 119.847656 258.191406 119.574219 257.09375 C 119.300781 256 119.050781 254.898438 118.832031 253.789062 C 118.613281 252.683594 118.421875 251.570312 118.253906 250.453125 C 118.089844 249.335938 117.953125 248.214844 117.839844 247.089844 C 117.730469 245.964844 117.648438 244.839844 117.59375 243.710938 C 117.539062 242.585938 117.511719 241.457031 117.511719 240.324219 Z M 117.511719 62.707031 " fill-opacity="1" fill-rule="nonzero"/></g><path fill="#a62525" d="M 121.855469 67.792969 L 259.492188 67.792969 L 259.492188 236.585938 C 259.492188 237.714844 259.460938 238.84375 259.40625 239.972656 C 259.351562 241.097656 259.269531 242.226562 259.160156 243.351562 C 259.046875 244.472656 258.910156 245.59375 258.746094 246.710938 C 258.578125 247.828125 258.386719 248.941406 258.167969 250.050781 C 257.949219 251.15625 257.699219 252.257812 257.425781 253.355469 C 257.152344 254.449219 256.851562 255.539062 256.527344 256.621094 C 256.199219 257.699219 255.84375 258.773438 255.464844 259.835938 C 255.085938 260.898438 254.679688 261.953125 254.25 262.996094 C 253.820312 264.039062 253.363281 265.074219 252.878906 266.09375 C 252.398438 267.117188 251.894531 268.125 251.363281 269.121094 C 250.832031 270.117188 250.273438 271.097656 249.695312 272.066406 C 249.117188 273.035156 248.515625 273.992188 247.886719 274.929688 C 247.261719 275.867188 246.613281 276.792969 245.941406 277.699219 C 245.273438 278.605469 244.578125 279.496094 243.863281 280.371094 C 243.148438 281.242188 242.414062 282.097656 241.65625 282.933594 C 240.902344 283.769531 240.125 284.589844 239.328125 285.386719 C 238.53125 286.1875 237.714844 286.964844 236.878906 287.722656 C 236.046875 288.480469 235.191406 289.21875 234.320312 289.9375 C 233.449219 290.652344 232.5625 291.347656 231.65625 292.019531 C 230.753906 292.691406 229.832031 293.34375 228.894531 293.96875 C 227.957031 294.597656 227.007812 295.199219 226.042969 295.78125 C 225.074219 296.363281 224.09375 296.917969 223.101562 297.449219 C 222.109375 297.984375 221.101562 298.492188 220.082031 298.972656 C 219.066406 299.457031 218.035156 299.914062 216.996094 300.34375 C 215.953125 300.777344 214.902344 301.183594 213.84375 301.5625 C 212.78125 301.945312 211.710938 302.296875 210.632812 302.625 C 209.554688 302.953125 208.472656 303.253906 207.378906 303.527344 C 206.285156 303.800781 205.1875 304.050781 204.082031 304.269531 C 202.976562 304.488281 201.867188 304.683594 200.753906 304.847656 C 199.640625 305.011719 198.519531 305.152344 197.398438 305.261719 C 196.277344 305.371094 195.15625 305.453125 194.03125 305.511719 C 192.90625 305.566406 191.78125 305.59375 190.652344 305.59375 C 189.527344 305.59375 188.402344 305.5625 187.277344 305.507812 C 186.152344 305.453125 185.03125 305.371094 183.910156 305.257812 C 182.789062 305.148438 181.671875 305.007812 180.558594 304.84375 C 179.445312 304.675781 178.335938 304.484375 177.230469 304.261719 C 176.125 304.042969 175.027344 303.796875 173.933594 303.519531 C 172.84375 303.246094 171.757812 302.945312 170.679688 302.617188 C 169.601562 302.289062 168.535156 301.933594 167.472656 301.554688 C 166.414062 301.171875 165.363281 300.765625 164.324219 300.335938 C 163.285156 299.902344 162.253906 299.445312 161.238281 298.960938 C 160.21875 298.480469 159.214844 297.972656 158.21875 297.4375 C 157.226562 296.90625 156.246094 296.351562 155.28125 295.769531 C 154.316406 295.1875 153.367188 294.585938 152.429688 293.957031 C 151.492188 293.328125 150.574219 292.679688 149.667969 292.007812 C 148.765625 291.332031 147.875 290.640625 147.007812 289.921875 C 146.136719 289.207031 145.285156 288.46875 144.449219 287.710938 C 143.613281 286.953125 142.800781 286.171875 142.003906 285.375 C 141.207031 284.574219 140.429688 283.757812 139.675781 282.921875 C 138.917969 282.085938 138.183594 281.230469 137.46875 280.355469 C 136.753906 279.484375 136.0625 278.59375 135.390625 277.6875 C 134.722656 276.78125 134.074219 275.855469 133.449219 274.917969 C 132.824219 273.980469 132.21875 273.023438 131.640625 272.058594 C 131.0625 271.089844 130.507812 270.105469 129.976562 269.109375 C 129.445312 268.113281 128.941406 267.105469 128.457031 266.085938 C 127.976562 265.0625 127.519531 264.03125 127.089844 262.988281 C 126.660156 261.945312 126.253906 260.890625 125.875 259.828125 C 125.496094 258.765625 125.144531 257.695312 124.816406 256.613281 C 124.488281 255.53125 124.1875 254.445312 123.914062 253.347656 C 123.640625 252.253906 123.394531 251.152344 123.175781 250.046875 C 122.957031 248.9375 122.761719 247.824219 122.597656 246.707031 C 122.433594 245.589844 122.296875 244.472656 122.183594 243.347656 C 122.074219 242.222656 121.992188 241.097656 121.9375 239.96875 C 121.882812 238.84375 121.855469 237.714844 121.855469 236.585938 Z M 121.855469 67.792969 " fill-opacity="1" fill-rule="nonzero"/><path fill="#ffc5c5" d="M 191.898438 213.59375 C 195.289062 213.59375 198.667969 213.371094 202.03125 212.929688 C 205.394531 212.492188 208.714844 211.835938 211.996094 210.96875 C 215.273438 210.097656 218.484375 209.019531 221.625 207.734375 C 224.761719 206.449219 227.808594 204.96875 230.757812 203.289062 C 233.707031 201.609375 236.535156 199.746094 239.246094 197.699219 C 241.953125 195.652344 244.523438 193.441406 246.945312 191.0625 C 249.371094 188.683594 251.632812 186.160156 253.730469 183.488281 C 255.832031 180.816406 257.75 178.023438 259.492188 175.101562 L 259.492188 166.0625 C 258.871094 167.402344 258.214844 168.71875 257.519531 170.019531 C 256.824219 171.316406 256.089844 172.59375 255.320312 173.851562 C 254.550781 175.105469 253.742188 176.335938 252.898438 177.542969 C 252.054688 178.75 251.175781 179.933594 250.261719 181.089844 C 249.347656 182.242188 248.402344 183.371094 247.421875 184.46875 C 246.441406 185.566406 245.429688 186.636719 244.386719 187.675781 C 243.34375 188.714844 242.269531 189.722656 241.167969 190.695312 C 240.066406 191.671875 238.933594 192.613281 237.777344 193.519531 C 236.617188 194.429688 235.433594 195.300781 234.222656 196.140625 C 233.011719 196.976562 231.78125 197.777344 230.523438 198.542969 C 229.265625 199.308594 227.984375 200.03125 226.6875 200.722656 C 225.386719 201.410156 224.066406 202.058594 222.726562 202.667969 C 221.390625 203.277344 220.035156 203.847656 218.660156 204.378906 C 217.289062 204.90625 215.902344 205.394531 214.5 205.84375 C 213.101562 206.289062 211.6875 206.695312 210.261719 207.058594 C 208.835938 207.421875 207.402344 207.742188 205.960938 208.019531 C 204.515625 208.296875 203.0625 208.53125 201.605469 208.722656 C 200.148438 208.914062 198.6875 209.0625 197.21875 209.167969 C 195.753906 209.273438 194.285156 209.335938 192.816406 209.351562 C 191.34375 209.371094 189.875 209.34375 188.40625 209.273438 C 186.9375 209.203125 185.472656 209.089844 184.011719 208.933594 C 182.550781 208.777344 181.09375 208.578125 179.644531 208.335938 C 178.191406 208.089844 176.75 207.804688 175.316406 207.476562 C 173.882812 207.148438 172.460938 206.777344 171.050781 206.363281 C 169.640625 205.949219 168.242188 205.492188 166.859375 204.996094 C 165.472656 204.5 164.105469 203.964844 162.75 203.386719 C 161.398438 202.808594 160.066406 202.191406 158.75 201.535156 C 157.433594 200.878906 156.136719 200.179688 154.863281 199.449219 C 153.585938 198.714844 152.335938 197.941406 151.105469 197.132812 C 149.875 196.324219 148.671875 195.480469 147.492188 194.601562 C 146.3125 193.722656 145.160156 192.808594 144.03125 191.859375 C 142.90625 190.910156 141.808594 189.929688 140.742188 188.914062 L 162.269531 167.328125 C 162.90625 167.910156 163.5625 168.472656 164.230469 169.015625 C 164.902344 169.558594 165.589844 170.082031 166.289062 170.585938 C 166.992188 171.089844 167.707031 171.570312 168.4375 172.03125 C 169.164062 172.492188 169.90625 172.929688 170.664062 173.347656 C 171.417969 173.765625 172.183594 174.160156 172.960938 174.53125 C 173.742188 174.902344 174.527344 175.253906 175.328125 175.578125 C 176.125 175.902344 176.933594 176.203125 177.75 176.484375 C 178.566406 176.761719 179.390625 177.015625 180.222656 177.242188 C 181.050781 177.472656 181.890625 177.679688 182.734375 177.859375 C 183.574219 178.039062 184.421875 178.195312 185.277344 178.324219 C 186.128906 178.453125 186.984375 178.558594 187.84375 178.640625 C 188.699219 178.71875 189.558594 178.773438 190.421875 178.804688 C 191.285156 178.832031 192.144531 178.835938 193.007812 178.816406 C 193.867188 178.792969 194.730469 178.746094 195.589844 178.675781 C 196.449219 178.601562 197.304688 178.503906 198.15625 178.382812 C 199.011719 178.261719 199.859375 178.113281 200.703125 177.941406 C 201.550781 177.765625 202.386719 177.570312 203.222656 177.347656 C 204.054688 177.125 204.878906 176.878906 205.699219 176.609375 C 206.519531 176.339844 207.328125 176.042969 208.128906 175.726562 C 208.929688 175.40625 209.722656 175.066406 210.503906 174.699219 C 211.285156 174.335938 212.054688 173.949219 212.8125 173.539062 C 213.574219 173.128906 214.320312 172.695312 215.054688 172.242188 C 215.785156 171.789062 216.507812 171.3125 217.210938 170.816406 C 217.917969 170.320312 218.609375 169.800781 219.285156 169.265625 C 219.957031 168.726562 220.617188 168.171875 221.261719 167.59375 C 221.902344 167.019531 222.527344 166.425781 223.136719 165.8125 C 223.746094 165.199219 224.335938 164.566406 224.90625 163.921875 C 225.476562 163.273438 226.027344 162.609375 226.558594 161.929688 C 227.09375 161.25 227.605469 160.554688 228.097656 159.84375 C 228.585938 159.132812 229.058594 158.410156 229.507812 157.671875 C 229.957031 156.933594 230.382812 156.183594 230.789062 155.417969 C 231.191406 154.65625 231.574219 153.882812 231.933594 153.097656 L 259.492188 164.242188 L 259.492188 159.679688 L 233.523438 149.175781 C 234.929688 145.144531 235.734375 141 235.9375 136.738281 L 259.492188 136.738281 L 259.492188 132.503906 L 235.9375 132.503906 C 235.71875 127.898438 234.804688 123.4375 233.1875 119.121094 L 259.492188 107.78125 L 259.492188 103.171875 L 231.519531 115.234375 C 229.675781 111.457031 227.339844 108.015625 224.519531 104.902344 L 246.070312 83.316406 C 251.621094 89.199219 256.101562 95.8125 259.515625 103.152344 L 259.515625 94.15625 C 256.320312 88.8125 252.550781 83.914062 248.207031 79.460938 C 243.867188 75.007812 239.066406 71.117188 233.8125 67.792969 L 225.234375 67.792969 C 231.785156 71.09375 237.726562 75.269531 243.054688 80.320312 L 221.535156 101.910156 C 218.175781 98.847656 214.441406 96.367188 210.324219 94.460938 L 221.058594 67.789062 L 216.515625 67.789062 L 206.414062 92.875 C 202.394531 91.464844 198.261719 90.660156 194.011719 90.457031 L 194.011719 67.792969 L 189.789062 67.792969 L 189.789062 90.460938 C 185.195312 90.675781 180.746094 91.597656 176.441406 93.21875 L 165.542969 67.816406 L 160.945312 67.816406 L 172.554688 94.910156 C 168.796875 96.757812 165.367188 99.089844 162.265625 101.910156 L 140.738281 80.320312 C 146.074219 75.269531 152.019531 71.09375 158.582031 67.792969 L 149.984375 67.792969 C 144.015625 71.574219 138.644531 76.070312 133.871094 81.289062 C 129.097656 86.503906 125.09375 92.257812 121.855469 98.546875 L 121.855469 109.089844 C 121.90625 108.9375 121.960938 108.785156 122.015625 108.636719 L 150.273438 120.066406 C 148.867188 124.09375 148.0625 128.242188 147.863281 132.503906 L 121.855469 132.503906 L 121.855469 136.738281 L 147.863281 136.738281 C 148.078125 141.34375 148.996094 145.800781 150.613281 150.117188 L 122.625 162.203125 C 122.355469 161.53125 122.097656 160.855469 121.855469 160.171875 L 121.855469 170.671875 C 122.675781 172.277344 123.550781 173.851562 124.480469 175.398438 C 125.414062 176.941406 126.394531 178.453125 127.425781 179.929688 C 128.460938 181.40625 129.542969 182.847656 130.675781 184.25 C 131.804688 185.652344 132.984375 187.015625 134.207031 188.339844 C 135.433594 189.660156 136.699219 190.941406 138.011719 192.175781 C 139.324219 193.410156 140.675781 194.597656 142.070312 195.742188 C 143.464844 196.882812 144.894531 197.976562 146.359375 199.019531 C 147.828125 200.0625 149.332031 201.054688 150.867188 201.996094 C 152.402344 202.9375 153.96875 203.824219 155.5625 204.660156 C 157.160156 205.492188 158.78125 206.269531 160.429688 206.992188 C 162.078125 207.714844 163.75 208.378906 165.445312 208.984375 C 167.140625 209.59375 168.855469 210.140625 170.585938 210.628906 C 172.316406 211.121094 174.0625 211.550781 175.824219 211.917969 C 177.585938 212.289062 179.359375 212.597656 181.140625 212.84375 C 182.921875 213.09375 184.710938 213.277344 186.507812 213.402344 C 188.300781 213.527344 190.101562 213.59375 191.898438 213.59375 Z M 191.898438 94.59375 C 193.207031 94.59375 194.511719 94.660156 195.8125 94.785156 C 197.113281 94.914062 198.402344 95.109375 199.6875 95.363281 C 200.96875 95.621094 202.234375 95.9375 203.484375 96.316406 C 204.738281 96.699219 205.964844 97.140625 207.175781 97.640625 C 208.382812 98.144531 209.5625 98.703125 210.714844 99.320312 C 211.867188 99.9375 212.988281 100.613281 214.074219 101.339844 C 215.160156 102.066406 216.210938 102.847656 217.222656 103.679688 C 218.230469 104.511719 219.199219 105.390625 220.125 106.316406 C 221.046875 107.246094 221.925781 108.214844 222.753906 109.226562 C 223.582031 110.242188 224.359375 111.292969 225.085938 112.382812 C 225.8125 113.472656 226.484375 114.597656 227.101562 115.753906 C 227.71875 116.910156 228.277344 118.09375 228.777344 119.304688 C 229.277344 120.515625 229.714844 121.746094 230.09375 123 C 230.476562 124.257812 230.792969 125.527344 231.046875 126.8125 C 231.300781 128.097656 231.492188 129.394531 231.621094 130.699219 C 231.75 132.003906 231.8125 133.308594 231.8125 134.621094 C 231.8125 135.933594 231.75 137.238281 231.621094 138.542969 C 231.492188 139.847656 231.300781 141.144531 231.046875 142.429688 C 230.792969 143.714844 230.476562 144.984375 230.09375 146.238281 C 229.714844 147.496094 229.277344 148.726562 228.777344 149.9375 C 228.277344 151.148438 227.71875 152.332031 227.101562 153.488281 C 226.484375 154.644531 225.8125 155.769531 225.085938 156.859375 C 224.359375 157.949219 223.582031 159 222.753906 160.011719 C 221.925781 161.027344 221.046875 161.996094 220.125 162.921875 C 219.199219 163.851562 218.230469 164.730469 217.222656 165.5625 C 216.210938 166.394531 215.160156 167.171875 214.074219 167.902344 C 212.988281 168.628906 211.867188 169.304688 210.714844 169.921875 C 209.5625 170.539062 208.382812 171.097656 207.175781 171.601562 C 205.964844 172.101562 204.738281 172.542969 203.484375 172.921875 C 202.234375 173.304688 200.96875 173.621094 199.6875 173.878906 C 198.402344 174.132812 197.113281 174.324219 195.8125 174.453125 C 194.511719 174.582031 193.207031 174.648438 191.898438 174.648438 C 190.589844 174.648438 189.289062 174.582031 187.988281 174.453125 C 186.6875 174.324219 185.394531 174.132812 184.113281 173.878906 C 182.828125 173.621094 181.5625 173.304688 180.3125 172.921875 C 179.0625 172.542969 177.832031 172.101562 176.625 171.601562 C 175.417969 171.097656 174.234375 170.539062 173.082031 169.921875 C 171.929688 169.304688 170.808594 168.628906 169.722656 167.902344 C 168.636719 167.171875 167.585938 166.394531 166.578125 165.5625 C 165.566406 164.730469 164.597656 163.851562 163.675781 162.921875 C 162.75 161.996094 161.875 161.027344 161.042969 160.011719 C 160.214844 159 159.4375 157.949219 158.710938 156.859375 C 157.984375 155.769531 157.3125 154.644531 156.695312 153.488281 C 156.082031 152.332031 155.523438 151.148438 155.023438 149.9375 C 154.523438 148.726562 154.082031 147.496094 153.703125 146.238281 C 153.324219 144.984375 153.007812 143.714844 152.75 142.429688 C 152.496094 141.144531 152.304688 139.847656 152.175781 138.542969 C 152.046875 137.238281 151.984375 135.933594 151.984375 134.621094 C 151.984375 133.308594 152.046875 132.003906 152.175781 130.699219 C 152.304688 129.394531 152.496094 128.097656 152.75 126.8125 C 153.007812 125.527344 153.324219 124.257812 153.703125 123 C 154.082031 121.746094 154.523438 120.515625 155.023438 119.304688 C 155.523438 118.09375 156.082031 116.910156 156.695312 115.753906 C 157.3125 114.597656 157.984375 113.472656 158.710938 112.382812 C 159.4375 111.292969 160.214844 110.242188 161.042969 109.226562 C 161.875 108.214844 162.75 107.246094 163.675781 106.316406 C 164.597656 105.390625 165.566406 104.511719 166.578125 103.679688 C 167.585938 102.847656 168.636719 102.066406 169.722656 101.339844 C 170.808594 100.613281 171.929688 99.9375 173.082031 99.320312 C 174.234375 98.703125 175.417969 98.144531 176.625 97.640625 C 177.832031 97.140625 179.0625 96.699219 180.3125 96.316406 C 181.5625 95.9375 182.828125 95.621094 184.113281 95.363281 C 185.394531 95.109375 186.6875 94.914062 187.988281 94.785156 C 189.289062 94.660156 190.589844 94.59375 191.898438 94.59375 Z M 123.625 104.707031 C 127.101562 96.757812 131.808594 89.628906 137.75 83.316406 L 159.277344 104.902344 C 156.230469 108.273438 153.753906 112.027344 151.855469 116.160156 Z M 152.304688 154.007812 C 154.144531 157.773438 156.46875 161.210938 159.277344 164.320312 L 137.75 185.925781 C 132.199219 180.035156 127.714844 173.417969 124.296875 166.074219 Z M 152.304688 154.007812 " fill-opacity="1" fill-rule="nonzero"/><path fill="#a62525" d="M 230.234375 147.09375 C 230.214844 146.082031 230.140625 145.070312 230.023438 144.066406 C 229.902344 143.058594 229.734375 142.058594 229.519531 141.070312 C 229.304688 140.078125 229.042969 139.097656 228.734375 138.132812 C 228.425781 137.167969 228.074219 136.21875 227.675781 135.289062 C 227.277344 134.355469 226.832031 133.445312 226.347656 132.558594 C 225.863281 131.667969 225.335938 130.804688 224.765625 129.964844 C 224.199219 129.128906 223.589844 128.316406 222.945312 127.539062 C 222.300781 126.757812 221.617188 126.011719 220.902344 125.296875 C 220.183594 124.582031 219.433594 123.902344 218.652344 123.257812 C 217.871094 122.617188 217.058594 122.011719 216.222656 121.449219 C 215.382812 120.882812 214.515625 120.359375 213.628906 119.878906 C 212.738281 119.394531 211.828125 118.957031 210.894531 118.5625 C 209.964844 118.167969 209.015625 117.820312 208.050781 117.515625 C 207.085938 117.214844 206.109375 116.957031 205.121094 116.75 C 204.132812 116.539062 203.132812 116.378906 202.128906 116.261719 C 201.125 116.148438 200.117188 116.085938 199.105469 116.066406 C 198.09375 116.050781 197.085938 116.082031 196.078125 116.164062 C 195.070312 116.242188 194.070312 116.371094 193.074219 116.546875 C 192.078125 116.722656 191.09375 116.945312 190.117188 117.21875 C 189.144531 117.488281 188.183594 117.804688 187.242188 118.167969 C 186.296875 118.53125 185.371094 118.9375 184.46875 119.390625 C 183.5625 119.84375 182.679688 120.335938 181.824219 120.871094 C 180.964844 121.410156 180.132812 121.984375 179.332031 122.601562 C 178.527344 123.21875 177.757812 123.871094 177.015625 124.5625 C 176.277344 125.25 175.570312 125.976562 174.898438 126.734375 C 174.226562 127.492188 173.59375 128.28125 173 129.101562 C 172.402344 129.917969 171.847656 130.765625 171.332031 131.636719 C 170.816406 132.507812 170.34375 133.40625 169.914062 134.320312 C 169.484375 135.238281 169.097656 136.175781 168.757812 137.128906 C 168.417969 138.085938 168.125 139.054688 167.878906 140.039062 C 167.628906 141.019531 167.429688 142.011719 167.277344 143.015625 C 167.125 144.015625 167.019531 145.023438 166.960938 146.035156 C 166.960938 146.378906 166.960938 146.722656 166.960938 147.0625 C 166.976562 148.816406 166.761719 150.542969 166.320312 152.238281 C 165.878906 153.9375 165.222656 155.546875 164.355469 157.070312 C 163.488281 158.59375 162.4375 159.976562 161.207031 161.21875 C 159.972656 162.464844 158.601562 163.527344 157.085938 164.40625 C 155.84375 165.117188 154.652344 165.902344 153.511719 166.769531 C 152.371094 167.636719 151.292969 168.578125 150.277344 169.585938 C 149.257812 170.597656 148.3125 171.667969 147.4375 172.804688 C 146.5625 173.9375 145.765625 175.128906 145.046875 176.367188 C 144.328125 177.609375 143.691406 178.890625 143.140625 180.214844 C 142.589844 181.539062 142.128906 182.894531 141.757812 184.28125 C 141.382812 185.664062 141.105469 187.070312 140.917969 188.492188 C 140.730469 189.914062 140.636719 191.34375 140.636719 192.777344 L 140.636719 192.902344 C 140.648438 194.671875 140.4375 196.414062 140 198.128906 C 139.5625 199.847656 138.914062 201.476562 138.054688 203.023438 C 137.195312 204.570312 136.152344 205.984375 134.929688 207.257812 C 133.703125 208.535156 132.339844 209.636719 130.832031 210.554688 C 129.324219 211.476562 127.902344 212.511719 126.566406 213.660156 C 125.226562 214.8125 123.988281 216.0625 122.855469 217.414062 C 121.71875 218.769531 120.699219 220.203125 119.796875 221.722656 C 118.894531 223.242188 118.121094 224.820312 117.472656 226.464844 C 116.828125 228.109375 116.316406 229.796875 115.941406 231.523438 C 115.570312 233.253906 115.339844 235 115.246094 236.765625 C 115.15625 238.53125 115.210938 240.292969 115.40625 242.046875 C 115.601562 243.804688 115.933594 245.535156 116.410156 247.238281 C 116.886719 248.941406 117.496094 250.59375 118.238281 252.195312 C 118.980469 253.796875 119.847656 255.332031 120.839844 256.792969 C 121.832031 258.253906 122.933594 259.625 124.148438 260.910156 C 125.363281 262.191406 126.671875 263.367188 128.074219 264.433594 C 129.480469 265.503906 130.960938 266.453125 132.519531 267.277344 C 134.078125 268.105469 135.691406 268.800781 137.359375 269.367188 C 139.03125 269.929688 140.738281 270.355469 142.476562 270.644531 C 144.214844 270.929688 145.96875 271.074219 147.730469 271.074219 " fill-opacity="1" fill-rule="nonzero"/><path fill="#a62525" d="M 211.105469 117.980469 C 210.121094 118.027344 209.140625 118.121094 208.167969 118.257812 C 207.191406 118.394531 206.226562 118.578125 205.269531 118.804688 C 204.3125 119.035156 203.367188 119.304688 202.433594 119.621094 C 201.5 119.9375 200.585938 120.296875 199.683594 120.699219 C 198.785156 121.097656 197.90625 121.539062 197.046875 122.023438 C 196.191406 122.507812 195.355469 123.03125 194.546875 123.589844 C 193.734375 124.152344 192.953125 124.75 192.199219 125.382812 C 191.445312 126.015625 190.71875 126.683594 190.027344 127.386719 C 189.335938 128.089844 188.675781 128.820312 188.050781 129.582031 C 187.425781 130.347656 186.839844 131.136719 186.289062 131.953125 C 185.734375 132.773438 185.222656 133.613281 184.75 134.480469 C 184.277344 135.34375 183.84375 136.230469 183.453125 137.136719 C 183.0625 138.042969 182.714844 138.964844 182.40625 139.902344 C 182.101562 140.839844 181.839844 141.789062 181.621094 142.753906 C 181.40625 143.714844 181.230469 144.6875 181.105469 145.664062 C 180.976562 146.644531 180.894531 147.628906 180.859375 148.613281 C 180.859375 148.957031 180.859375 149.300781 180.859375 149.640625 C 180.871094 151.394531 180.652344 153.117188 180.207031 154.816406 C 179.765625 156.511719 179.109375 158.121094 178.238281 159.640625 C 177.371094 161.164062 176.316406 162.546875 175.085938 163.789062 C 173.851562 165.03125 172.476562 166.089844 170.960938 166.96875 C 169.71875 167.675781 168.527344 168.464844 167.386719 169.332031 C 166.246094 170.199219 165.167969 171.140625 164.152344 172.148438 C 163.136719 173.160156 162.191406 174.230469 161.316406 175.367188 C 160.4375 176.5 159.640625 177.6875 158.921875 178.929688 C 158.203125 180.171875 157.570312 181.453125 157.019531 182.777344 C 156.46875 184.101562 156.007812 185.457031 155.636719 186.84375 C 155.265625 188.226562 154.984375 189.632812 154.796875 191.054688 C 154.609375 192.476562 154.515625 193.90625 154.515625 195.339844 L 154.515625 195.484375 C 154.527344 197.253906 154.316406 198.996094 153.878906 200.714844 C 153.4375 202.429688 152.789062 204.058594 151.929688 205.605469 C 151.070312 207.152344 150.027344 208.566406 148.804688 209.839844 C 147.578125 211.117188 146.214844 212.21875 144.707031 213.140625 C 143.199219 214.058594 141.773438 215.089844 140.433594 216.242188 C 139.089844 217.394531 137.851562 218.644531 136.714844 219.996094 C 135.578125 221.351562 134.554688 222.785156 133.652344 224.304688 C 132.746094 225.824219 131.96875 227.40625 131.324219 229.054688 C 130.675781 230.699219 130.164062 232.386719 129.789062 234.117188 C 129.414062 235.84375 129.183594 237.59375 129.09375 239.359375 C 129 241.128906 129.054688 242.890625 129.25 244.648438 C 129.445312 246.410156 129.78125 248.140625 130.257812 249.84375 C 130.734375 251.546875 131.34375 253.203125 132.089844 254.804688 C 132.832031 256.410156 133.703125 257.941406 134.695312 259.40625 C 135.6875 260.867188 136.792969 262.242188 138.007812 263.523438 C 139.226562 264.804688 140.535156 265.980469 141.945312 267.050781 C 143.351562 268.117188 144.832031 269.066406 146.394531 269.890625 C 147.953125 270.71875 149.570312 271.414062 151.246094 271.976562 C 152.917969 272.539062 154.625 272.960938 156.367188 273.246094 C 158.109375 273.527344 159.863281 273.671875 161.625 273.667969 " fill-opacity="1" fill-rule="nonzero"/><path fill="#a62525" d="M 221.945312 125.757812 C 220.960938 125.804688 219.984375 125.894531 219.007812 126.035156 C 218.035156 126.171875 217.070312 126.355469 216.113281 126.585938 C 215.15625 126.8125 214.210938 127.085938 213.277344 127.402344 C 212.347656 127.71875 211.429688 128.074219 210.53125 128.476562 C 209.632812 128.878906 208.753906 129.320312 207.898438 129.804688 C 207.039062 130.289062 206.207031 130.8125 205.394531 131.371094 C 204.585938 131.933594 203.804688 132.53125 203.050781 133.164062 C 202.296875 133.796875 201.574219 134.464844 200.878906 135.167969 C 200.1875 135.867188 199.53125 136.601562 198.90625 137.363281 C 198.28125 138.125 197.695312 138.914062 197.140625 139.730469 C 196.589844 140.550781 196.078125 141.390625 195.605469 142.253906 C 195.132812 143.121094 194.699219 144.003906 194.308594 144.910156 C 193.917969 145.816406 193.566406 146.738281 193.261719 147.675781 C 192.957031 148.613281 192.695312 149.5625 192.476562 150.527344 C 192.257812 151.488281 192.085938 152.457031 191.957031 153.4375 C 191.828125 154.414062 191.746094 155.398438 191.710938 156.382812 C 191.710938 156.734375 191.710938 157.089844 191.710938 157.441406 C 191.722656 159.195312 191.507812 160.921875 191.066406 162.617188 C 190.625 164.3125 189.96875 165.925781 189.101562 167.445312 C 188.234375 168.96875 187.183594 170.355469 185.953125 171.597656 C 184.71875 172.84375 183.347656 173.90625 181.835938 174.785156 C 180.589844 175.496094 179.398438 176.28125 178.257812 177.148438 C 177.117188 178.015625 176.039062 178.953125 175.023438 179.964844 C 174.003906 180.972656 173.058594 182.046875 172.183594 183.183594 C 171.308594 184.316406 170.511719 185.503906 169.792969 186.746094 C 169.070312 187.984375 168.4375 189.269531 167.886719 190.59375 C 167.335938 191.917969 166.875 193.273438 166.503906 194.660156 C 166.128906 196.042969 165.851562 197.449219 165.664062 198.871094 C 165.476562 200.292969 165.382812 201.722656 165.382812 203.15625 L 165.382812 203.300781 C 165.394531 205.070312 165.179688 206.816406 164.738281 208.53125 C 164.296875 210.246094 163.644531 211.878906 162.785156 213.425781 C 161.921875 214.972656 160.878906 216.382812 159.652344 217.65625 C 158.425781 218.933594 157.054688 220.03125 155.546875 220.949219 C 154.359375 221.675781 153.222656 222.472656 152.136719 223.34375 C 151.050781 224.214844 150.023438 225.152344 149.058594 226.152344 C 148.09375 227.15625 147.195312 228.214844 146.363281 229.335938 C 145.535156 230.453125 144.777344 231.617188 144.097656 232.835938 C 143.417969 234.050781 142.816406 235.304688 142.296875 236.597656 C 141.773438 237.890625 141.339844 239.210938 140.988281 240.558594 C 140.636719 241.90625 140.371094 243.273438 140.195312 244.65625 C 140.015625 246.039062 139.929688 247.425781 139.929688 248.820312 C 139.929688 266.847656 156.613281 281.457031 174.589844 281.457031 " fill-opacity="1" fill-rule="nonzero"/><path fill="#ffc5c5" d="M 176.890625 268.949219 C 174.523438 258.292969 182.261719 247.855469 193.140625 247.464844 C 193.433594 247.464844 193.730469 247.464844 194.03125 247.464844 C 215.800781 247.464844 219.40625 264.226562 219.40625 264.226562 C 219.40625 264.226562 221.859375 246.910156 237.441406 246.671875 C 249.410156 246.46875 250.820312 256.25 250.820312 256.25 C 250.820312 256.25 251.996094 244.265625 250.820312 233.835938 C 248.894531 216.714844 234.304688 207.832031 223.820312 205.527344 C 217.9375 204.238281 203.847656 205.394531 203.847656 205.394531 C 203.664062 205.398438 203.480469 205.375 203.300781 205.332031 C 203.121094 205.285156 202.949219 205.222656 202.785156 205.132812 C 202.621094 205.046875 202.46875 204.941406 202.332031 204.820312 C 202.191406 204.695312 202.070312 204.554688 201.96875 204.402344 C 201.863281 204.25 201.777344 204.085938 201.714844 203.910156 C 201.652344 203.738281 201.609375 203.558594 201.589844 203.371094 C 201.570312 203.1875 201.570312 203.003906 201.597656 202.820312 C 201.621094 202.636719 201.667969 202.457031 201.738281 202.285156 L 202.371094 200.695312 C 205.089844 194.398438 207.195312 190.464844 214.035156 190.492188 L 221.46875 190.519531 C 221.882812 190.519531 222.289062 190.457031 222.683594 190.328125 C 223.078125 190.203125 223.445312 190.015625 223.78125 189.773438 C 224.117188 189.53125 224.40625 189.242188 224.652344 188.90625 C 224.894531 188.570312 225.082031 188.203125 225.210938 187.808594 L 227.664062 180.285156 L 227.714844 180.285156 C 228.203125 180.179688 228.601562 179.925781 228.902344 179.523438 C 229.042969 179.320312 229.152344 179.105469 229.222656 178.867188 C 229.292969 178.632812 229.324219 178.390625 229.316406 178.144531 C 229.308594 177.898438 229.257812 177.660156 229.171875 177.429688 C 229.085938 177.199219 228.960938 176.992188 228.804688 176.800781 L 228.847656 176.675781 C 229.140625 176.628906 229.417969 176.523438 229.671875 176.367188 C 229.925781 176.210938 230.136719 176.011719 230.3125 175.765625 C 230.484375 175.523438 230.605469 175.257812 230.671875 174.964844 C 230.742188 174.675781 230.75 174.382812 230.699219 174.085938 L 230.496094 172.886719 C 230.394531 172.335938 230.527344 171.855469 230.894531 171.441406 C 231.289062 171.003906 231.765625 170.691406 232.316406 170.492188 L 232.953125 170.265625 C 233.191406 170.179688 233.414062 170.070312 233.625 169.929688 C 233.835938 169.792969 234.023438 169.628906 234.195312 169.441406 C 234.363281 169.257812 234.511719 169.054688 234.628906 168.832031 C 234.75 168.613281 234.84375 168.378906 234.90625 168.136719 C 234.972656 167.890625 235.003906 167.644531 235.007812 167.390625 C 235.011719 167.140625 234.984375 166.890625 234.929688 166.644531 C 234.871094 166.398438 234.785156 166.164062 234.671875 165.9375 C 234.558594 165.714844 234.417969 165.507812 234.253906 165.316406 C 232.59375 163.4375 230.820312 161.082031 230.285156 159.167969 C 229.871094 157.679688 230.992188 154.402344 231.527344 150.242188 C 231.660156 149.414062 231.878906 148.613281 232.183594 147.832031 C 232.265625 147.601562 232.304688 147.363281 232.304688 147.121094 C 232.304688 145.980469 232.246094 144.84375 232.132812 143.710938 C 232.015625 142.578125 231.84375 141.453125 231.617188 140.335938 C 231.390625 139.222656 231.105469 138.121094 230.765625 137.03125 C 230.425781 135.945312 230.035156 134.875 229.589844 133.828125 C 229.140625 132.78125 228.644531 131.757812 228.09375 130.761719 C 227.546875 129.765625 226.949219 128.796875 226.300781 127.859375 C 225.652344 126.921875 224.960938 126.019531 224.222656 125.15625 C 223.488281 124.289062 222.707031 123.460938 221.886719 122.671875 C 221.066406 121.882812 220.207031 121.140625 219.3125 120.4375 C 218.417969 119.738281 217.488281 119.082031 216.527344 118.476562 C 215.566406 117.867188 214.574219 117.3125 213.558594 116.804688 C 212.542969 116.296875 211.5 115.84375 210.4375 115.441406 C 209.375 115.039062 208.292969 114.691406 207.195312 114.402344 C 206.097656 114.109375 204.988281 113.871094 203.863281 113.691406 C 202.742188 113.511719 201.613281 113.390625 200.480469 113.324219 C 199.347656 113.257812 198.210938 113.25 197.078125 113.296875 C 196.027344 113.347656 194.984375 113.445312 193.941406 113.59375 C 192.902344 113.738281 191.871094 113.933594 190.851562 114.175781 C 189.828125 114.421875 188.820312 114.710938 187.824219 115.046875 C 186.828125 115.382812 185.851562 115.765625 184.894531 116.195312 C 183.933594 116.625 182.996094 117.09375 182.082031 117.609375 C 181.164062 118.125 180.273438 118.683594 179.410156 119.28125 C 178.546875 119.878906 177.710938 120.519531 176.90625 121.195312 C 176.101562 121.871094 175.328125 122.582031 174.589844 123.332031 C 173.851562 124.078125 173.148438 124.859375 172.484375 125.675781 C 171.816406 126.488281 171.1875 127.332031 170.601562 128.203125 C 170.011719 129.078125 169.464844 129.976562 168.960938 130.898438 C 168.457031 131.820312 167.996094 132.765625 167.578125 133.734375 C 167.160156 134.699219 166.789062 135.683594 166.460938 136.683594 C 166.136719 137.683594 165.855469 138.699219 165.625 139.726562 C 165.390625 140.753906 165.207031 141.789062 165.070312 142.832031 C 164.933594 143.878906 164.847656 144.925781 164.808594 145.976562 C 164.808594 146.34375 164.808594 146.707031 164.808594 147.074219 C 164.820312 148.640625 164.625 150.179688 164.230469 151.695312 C 163.835938 153.210938 163.25 154.652344 162.476562 156.011719 C 161.707031 157.371094 160.769531 158.609375 159.671875 159.722656 C 158.574219 160.839844 157.347656 161.789062 156 162.582031 C 154.675781 163.339844 153.410156 164.179688 152.199219 165.105469 C 150.984375 166.027344 149.839844 167.027344 148.757812 168.105469 C 147.675781 169.179688 146.671875 170.324219 145.738281 171.53125 C 144.808594 172.738281 143.957031 174.003906 143.191406 175.324219 C 142.425781 176.644531 141.75 178.011719 141.164062 179.417969 C 140.578125 180.828125 140.085938 182.269531 139.6875 183.746094 C 139.289062 185.21875 138.992188 186.714844 138.789062 188.226562 C 138.589844 189.742188 138.484375 191.261719 138.484375 192.789062 L 138.484375 192.902344 C 138.503906 194.492188 138.320312 196.0625 137.933594 197.605469 C 137.542969 199.148438 136.964844 200.617188 136.195312 202.007812 C 135.425781 203.402344 134.488281 204.671875 133.390625 205.820312 C 132.289062 206.964844 131.058594 207.953125 129.703125 208.777344 C 128.1875 209.703125 126.75 210.742188 125.390625 211.886719 C 124.035156 213.035156 122.773438 214.28125 121.609375 215.621094 C 120.441406 216.964844 119.382812 218.386719 118.4375 219.890625 C 117.488281 221.394531 116.660156 222.964844 115.953125 224.597656 C 115.242188 226.230469 114.664062 227.90625 114.214844 229.628906 C 113.761719 231.347656 113.445312 233.09375 113.261719 234.867188 C 113.078125 236.636719 113.03125 238.410156 113.117188 240.1875 C 113.207031 241.964844 113.429688 243.726562 113.789062 245.46875 C 114.144531 247.210938 114.632812 248.917969 115.253906 250.585938 C 115.875 252.253906 116.617188 253.867188 117.480469 255.417969 C 118.347656 256.972656 119.328125 258.449219 120.421875 259.851562 C 121.511719 261.257812 122.707031 262.566406 124 263.785156 C 125.292969 265.003906 126.671875 266.117188 128.136719 267.125 C 129.601562 268.128906 131.132812 269.019531 132.730469 269.789062 C 134.332031 270.558594 135.980469 271.203125 137.679688 271.71875 C 139.378906 272.234375 141.105469 272.617188 142.863281 272.871094 C 143.179688 272.910156 143.5 272.921875 143.820312 272.902344 C 144.136719 272.882812 144.453125 272.828125 144.761719 272.746094 C 145.070312 272.664062 145.367188 272.550781 145.65625 272.410156 C 145.941406 272.265625 146.214844 272.097656 146.464844 271.902344 C 146.71875 271.707031 146.953125 271.488281 147.164062 271.246094 C 147.375 271.007812 147.558594 270.746094 147.71875 270.46875 C 147.878906 270.191406 148.007812 269.898438 148.113281 269.59375 C 148.214844 269.292969 148.285156 268.980469 148.328125 268.660156 C 148.488281 267.371094 148.1875 266.199219 147.429688 265.148438 C 145.707031 262.773438 144.386719 260.195312 143.46875 257.40625 C 142.546875 254.621094 142.070312 251.761719 142.039062 248.824219 C 142.035156 247.519531 142.113281 246.222656 142.277344 244.925781 C 142.441406 243.632812 142.683594 242.355469 143.011719 241.09375 C 143.339844 239.828125 143.746094 238.59375 144.230469 237.382812 C 144.71875 236.171875 145.277344 235 145.917969 233.863281 C 146.554688 232.726562 147.261719 231.632812 148.039062 230.589844 C 148.816406 229.542969 149.65625 228.550781 150.5625 227.613281 C 151.46875 226.675781 152.429688 225.804688 153.445312 224.992188 C 154.464844 224.179688 155.53125 223.433594 156.644531 222.761719 C 158.3125 221.75 159.820312 220.539062 161.171875 219.136719 C 162.527344 217.730469 163.675781 216.175781 164.625 214.46875 C 165.574219 212.761719 166.289062 210.960938 166.769531 209.070312 C 167.25 207.175781 167.480469 205.253906 167.464844 203.300781 L 167.464844 203.15625 C 167.464844 201.816406 167.554688 200.480469 167.734375 199.152344 C 167.910156 197.820312 168.171875 196.507812 168.523438 195.214844 C 168.871094 193.917969 169.304688 192.652344 169.820312 191.414062 C 170.335938 190.175781 170.929688 188.976562 171.601562 187.816406 C 172.273438 186.65625 173.019531 185.546875 173.835938 184.484375 C 174.652344 183.421875 175.539062 182.417969 176.488281 181.476562 C 177.4375 180.53125 178.445312 179.652344 179.507812 178.839844 C 180.574219 178.027344 181.6875 177.285156 182.847656 176.621094 C 184.519531 175.644531 186.035156 174.46875 187.398438 173.09375 C 188.761719 171.71875 189.921875 170.1875 190.882812 168.503906 C 191.84375 166.820312 192.570312 165.039062 193.0625 163.164062 C 193.554688 161.289062 193.796875 159.382812 193.789062 157.441406 C 193.789062 157.125 193.789062 156.800781 193.789062 156.484375 C 193.820312 155.597656 193.894531 154.714844 194.007812 153.835938 C 194.121094 152.957031 194.269531 152.085938 194.460938 151.21875 C 194.652344 150.355469 194.878906 149.5 195.144531 148.652344 C 195.410156 147.808594 195.714844 146.976562 196.054688 146.160156 C 196.394531 145.339844 196.773438 144.539062 197.183594 143.753906 C 197.59375 142.972656 198.042969 142.207031 198.519531 141.464844 C 199 140.71875 199.511719 139.996094 200.058594 139.300781 C 200.601562 138.601562 201.175781 137.929688 201.78125 137.28125 C 202.382812 136.632812 203.015625 136.015625 203.675781 135.425781 C 204.332031 134.835938 205.015625 134.273438 205.726562 133.746094 C 206.4375 133.214844 207.167969 132.71875 207.921875 132.257812 C 208.671875 131.792969 209.445312 131.363281 210.238281 130.96875 C 211.027344 130.574219 211.835938 130.214844 212.660156 129.894531 C 213.484375 129.574219 214.320312 129.289062 215.167969 129.039062 C 216.015625 128.792969 216.875 128.585938 217.742188 128.414062 C 218.609375 128.246094 219.484375 128.113281 220.363281 128.019531 C 220.859375 127.976562 221.265625 128.152344 221.570312 128.550781 C 221.648438 128.652344 221.726562 128.746094 221.800781 128.847656 C 223.769531 131.492188 226.992188 137.351562 217.691406 138.8125 C 205.300781 140.753906 205.511719 156.738281 203.441406 164.972656 C 201.03125 174.582031 194.109375 179.484375 190.484375 181.453125 C 187.75 182.902344 185.34375 184.78125 183.265625 187.078125 C 180.355469 190.34375 177.238281 195.140625 177.164062 200.710938 C 177.019531 210.925781 172.894531 222.527344 164.632812 226.644531 C 156.375 230.761719 147.140625 239.136719 149.855469 251.519531 L 160.042969 285.078125 C 161.292969 289.207031 163.738281 294.230469 167.828125 295.484375 L 183.730469 299.964844 Z M 117.292969 238.414062 C 117.289062 237.109375 117.367188 235.8125 117.53125 234.515625 C 117.691406 233.222656 117.9375 231.945312 118.265625 230.683594 C 118.589844 229.417969 118.996094 228.183594 119.484375 226.972656 C 119.96875 225.761719 120.53125 224.589844 121.167969 223.453125 C 121.804688 222.316406 122.511719 221.222656 123.292969 220.179688 C 124.070312 219.132812 124.910156 218.140625 125.816406 217.203125 C 126.722656 216.265625 127.683594 215.394531 128.699219 214.582031 C 129.71875 213.769531 130.785156 213.023438 131.898438 212.351562 C 133.5625 211.339844 135.070312 210.132812 136.425781 208.726562 C 137.777344 207.324219 138.925781 205.769531 139.875 204.0625 C 140.824219 202.359375 141.539062 200.558594 142.019531 198.667969 C 142.503906 196.773438 142.734375 194.851562 142.714844 192.902344 L 142.714844 192.757812 C 142.71875 191.417969 142.808594 190.082031 142.984375 188.75 C 143.164062 187.421875 143.425781 186.109375 143.773438 184.816406 C 144.125 183.519531 144.554688 182.253906 145.070312 181.015625 C 145.585938 179.777344 146.179688 178.578125 146.851562 177.417969 C 147.527344 176.261719 148.269531 175.148438 149.089844 174.089844 C 149.90625 173.027344 150.789062 172.023438 151.742188 171.078125 C 152.691406 170.132812 153.695312 169.253906 154.761719 168.441406 C 155.828125 167.632812 156.9375 166.890625 158.101562 166.226562 C 159.773438 165.25 161.289062 164.074219 162.652344 162.699219 C 164.015625 161.324219 165.175781 159.792969 166.136719 158.109375 C 167.097656 156.425781 167.824219 154.644531 168.316406 152.769531 C 168.808594 150.894531 169.050781 148.988281 169.042969 147.046875 C 169.042969 146.722656 169.042969 146.40625 169.042969 146.085938 C 169.074219 145.164062 169.152344 144.246094 169.269531 143.332031 C 169.390625 142.417969 169.550781 141.515625 169.753906 140.617188 C 169.957031 139.71875 170.203125 138.832031 170.488281 137.953125 C 170.773438 137.078125 171.097656 136.21875 171.464844 135.375 C 171.828125 134.527344 172.234375 133.703125 172.675781 132.894531 C 173.117188 132.085938 173.59375 131.300781 174.109375 130.539062 C 174.625 129.773438 175.171875 129.039062 175.757812 128.324219 C 176.339844 127.613281 176.953125 126.929688 177.601562 126.277344 C 178.246094 125.621094 178.921875 125 179.628906 124.40625 C 180.332031 123.816406 181.0625 123.257812 181.816406 122.734375 C 182.574219 122.210938 183.351562 121.726562 184.152344 121.273438 C 184.953125 120.824219 185.773438 120.410156 186.613281 120.035156 C 187.453125 119.660156 188.308594 119.328125 189.179688 119.03125 C 190.050781 118.738281 190.929688 118.484375 191.824219 118.273438 C 192.71875 118.058594 193.621094 117.890625 194.53125 117.761719 C 195.441406 117.632812 196.355469 117.546875 197.273438 117.503906 C 198.089844 117.46875 198.90625 117.46875 199.71875 117.503906 C 199.941406 117.519531 200.070312 117.636719 200.105469 117.855469 C 200.140625 118.074219 200.058594 118.226562 199.851562 118.308594 C 198.347656 118.921875 196.894531 119.640625 195.492188 120.464844 C 194.09375 121.289062 192.757812 122.207031 191.488281 123.222656 C 190.21875 124.238281 189.027344 125.339844 187.914062 126.527344 C 186.804688 127.714844 185.78125 128.972656 184.851562 130.308594 C 183.917969 131.640625 183.085938 133.035156 182.355469 134.492188 C 181.625 135.945312 181 137.441406 180.484375 138.988281 C 179.964844 140.53125 179.5625 142.105469 179.269531 143.707031 C 178.976562 145.308594 178.800781 146.921875 178.742188 148.550781 C 178.742188 148.914062 178.742188 149.28125 178.742188 149.644531 C 178.753906 151.210938 178.558594 152.753906 178.164062 154.269531 C 177.769531 155.785156 177.1875 157.222656 176.414062 158.585938 C 175.640625 159.945312 174.703125 161.183594 173.605469 162.296875 C 172.507812 163.410156 171.28125 164.363281 169.933594 165.152344 C 168.609375 165.910156 167.34375 166.753906 166.132812 167.675781 C 164.917969 168.601562 163.773438 169.601562 162.691406 170.679688 C 161.609375 171.753906 160.605469 172.898438 159.671875 174.105469 C 158.742188 175.316406 157.894531 176.578125 157.128906 177.898438 C 156.363281 179.222656 155.6875 180.585938 155.101562 181.996094 C 154.515625 183.40625 154.023438 184.847656 153.625 186.320312 C 153.226562 187.796875 152.929688 189.289062 152.726562 190.804688 C 152.527344 192.320312 152.425781 193.839844 152.421875 195.367188 L 152.421875 195.515625 C 152.4375 197.105469 152.25 198.667969 151.859375 200.210938 C 151.46875 201.75 150.886719 203.214844 150.113281 204.605469 C 149.34375 205.992188 148.40625 207.257812 147.308594 208.402344 C 146.207031 209.546875 144.980469 210.53125 143.625 211.355469 C 143.035156 211.714844 142.460938 212.089844 141.894531 212.484375 C 141.328125 212.875 140.773438 213.285156 140.234375 213.710938 C 139.691406 214.136719 139.164062 214.582031 138.648438 215.039062 C 138.132812 215.496094 137.632812 215.96875 137.144531 216.457031 C 136.65625 216.945312 136.183594 217.445312 135.726562 217.964844 C 135.269531 218.480469 134.828125 219.007812 134.40625 219.550781 C 133.980469 220.09375 133.570312 220.648438 133.175781 221.214844 C 132.785156 221.78125 132.410156 222.359375 132.050781 222.949219 C 131.691406 223.539062 131.351562 224.140625 131.03125 224.75 C 130.707031 225.359375 130.402344 225.976562 130.117188 226.605469 C 129.832031 227.234375 129.566406 227.871094 129.316406 228.511719 C 129.070312 229.15625 128.839844 229.808594 128.632812 230.464844 C 128.421875 231.125 128.230469 231.785156 128.0625 232.457031 C 127.894531 233.125 127.742188 233.796875 127.613281 234.476562 C 127.484375 235.152344 127.375 235.835938 127.285156 236.519531 C 127.195312 237.203125 127.128906 237.890625 127.078125 238.578125 C 127.03125 239.269531 127.003906 239.957031 126.996094 240.648438 C 126.988281 241.335938 127 242.027344 127.035156 242.714844 C 127.070312 243.40625 127.125 244.09375 127.199219 244.78125 C 127.273438 245.464844 127.367188 246.148438 127.484375 246.832031 C 127.597656 247.511719 127.734375 248.1875 127.890625 248.859375 C 128.042969 249.53125 128.21875 250.199219 128.414062 250.859375 C 128.609375 251.523438 128.824219 252.179688 129.058594 252.828125 C 129.292969 253.476562 129.546875 254.117188 129.820312 254.753906 C 130.09375 255.386719 130.382812 256.011719 130.691406 256.628906 C 131.003906 257.246094 131.328125 257.851562 131.675781 258.449219 C 132.019531 259.042969 132.382812 259.632812 132.765625 260.207031 C 133.144531 260.78125 133.542969 261.34375 133.957031 261.894531 C 134.371094 262.449219 134.800781 262.984375 135.246094 263.511719 C 135.695312 264.039062 136.15625 264.550781 136.632812 265.046875 C 137.109375 265.546875 137.597656 266.027344 138.105469 266.496094 C 138.609375 266.964844 139.128906 267.417969 139.660156 267.855469 C 138.066406 267.414062 136.515625 266.847656 135.011719 266.152344 C 133.507812 265.457031 132.070312 264.644531 130.699219 263.714844 C 129.328125 262.785156 128.039062 261.75 126.835938 260.609375 C 125.632812 259.46875 124.53125 258.238281 123.527344 256.917969 C 122.523438 255.597656 121.632812 254.203125 120.859375 252.738281 C 120.082031 251.273438 119.425781 249.753906 118.898438 248.179688 C 118.367188 246.605469 117.96875 245 117.699219 243.363281 C 117.429688 241.726562 117.292969 240.074219 117.292969 238.414062 Z M 216.230469 124.378906 C 214.40625 124.78125 212.628906 125.328125 210.898438 126.023438 C 209.164062 126.71875 207.5 127.550781 205.90625 128.523438 C 204.3125 129.492188 202.804688 130.585938 201.390625 131.808594 C 199.976562 133.027344 198.671875 134.351562 197.472656 135.789062 C 196.277344 137.222656 195.207031 138.746094 194.257812 140.359375 C 193.3125 141.972656 192.503906 143.652344 191.835938 145.398438 C 191.164062 147.144531 190.644531 148.933594 190.269531 150.765625 C 189.890625 152.597656 189.667969 154.449219 189.597656 156.320312 C 189.597656 156.683594 189.597656 157.050781 189.597656 157.414062 C 189.609375 158.980469 189.414062 160.523438 189.019531 162.039062 C 188.625 163.554688 188.039062 164.992188 187.269531 166.351562 C 186.496094 167.714844 185.558594 168.953125 184.460938 170.066406 C 183.363281 171.179688 182.136719 172.132812 180.789062 172.921875 C 179.46875 173.679688 178.199219 174.519531 176.988281 175.445312 C 175.773438 176.371094 174.628906 177.371094 173.546875 178.449219 C 172.464844 179.523438 171.460938 180.667969 170.527344 181.875 C 169.597656 183.085938 168.75 184.347656 167.984375 185.667969 C 167.21875 186.988281 166.542969 188.355469 165.953125 189.765625 C 165.367188 191.175781 164.875 192.617188 164.480469 194.089844 C 164.082031 195.566406 163.78125 197.058594 163.578125 198.574219 C 163.378906 200.089844 163.273438 201.609375 163.273438 203.136719 L 163.273438 203.285156 C 163.289062 204.875 163.101562 206.441406 162.707031 207.984375 C 162.316406 209.523438 161.730469 210.992188 160.957031 212.378906 C 160.183594 213.769531 159.246094 215.035156 158.140625 216.179688 C 157.039062 217.320312 155.808594 218.304688 154.449219 219.125 C 153.179688 219.894531 151.96875 220.738281 150.808594 221.664062 C 149.648438 222.589844 148.554688 223.585938 147.523438 224.652344 C 146.492188 225.71875 145.535156 226.847656 144.648438 228.039062 C 143.765625 229.230469 142.957031 230.472656 142.234375 231.765625 C 141.507812 233.0625 140.867188 234.398438 140.3125 235.777344 C 139.761719 237.152344 139.296875 238.5625 138.925781 240 C 138.550781 241.4375 138.273438 242.890625 138.089844 244.367188 C 137.902344 245.839844 137.8125 247.320312 137.820312 248.804688 C 137.824219 251.480469 138.160156 254.117188 138.832031 256.710938 C 139.5 259.300781 140.476562 261.769531 141.765625 264.117188 C 141.3125 263.726562 140.875 263.320312 140.445312 262.90625 C 140.015625 262.488281 139.597656 262.058594 139.195312 261.617188 C 138.792969 261.179688 138.402344 260.726562 138.023438 260.261719 C 137.648438 259.796875 137.285156 259.324219 136.9375 258.835938 C 136.585938 258.351562 136.253906 257.855469 135.933594 257.351562 C 135.613281 256.84375 135.308594 256.332031 135.015625 255.808594 C 134.726562 255.285156 134.453125 254.753906 134.195312 254.214844 C 133.9375 253.675781 133.695312 253.128906 133.46875 252.574219 C 133.242188 252.019531 133.03125 251.460938 132.835938 250.894531 C 132.644531 250.328125 132.46875 249.753906 132.308594 249.179688 C 132.148438 248.601562 132.003906 248.023438 131.878906 247.4375 C 131.753906 246.851562 131.644531 246.261719 131.550781 245.671875 C 131.460938 245.078125 131.386719 244.484375 131.332031 243.890625 C 131.273438 243.292969 131.234375 242.699219 131.214844 242.097656 C 131.191406 241.5 131.1875 240.902344 131.203125 240.304688 C 131.214844 239.707031 131.246094 239.109375 131.296875 238.511719 C 131.34375 237.914062 131.410156 237.320312 131.496094 236.726562 C 131.578125 236.136719 131.679688 235.546875 131.800781 234.957031 C 131.917969 234.371094 132.054688 233.789062 132.207031 233.210938 C 132.359375 232.632812 132.527344 232.058594 132.714844 231.488281 C 132.902344 230.921875 133.101562 230.359375 133.324219 229.800781 C 133.542969 229.246094 133.777344 228.695312 134.03125 228.152344 C 134.28125 227.609375 134.546875 227.074219 134.832031 226.546875 C 135.113281 226.019531 135.414062 225.503906 135.726562 224.992188 C 136.039062 224.484375 136.367188 223.984375 136.710938 223.496094 C 137.054688 223.003906 137.410156 222.527344 137.78125 222.054688 C 138.152344 221.585938 138.539062 221.128906 138.9375 220.683594 C 139.335938 220.238281 139.746094 219.804688 140.167969 219.382812 C 140.59375 218.960938 141.027344 218.550781 141.476562 218.15625 C 141.921875 217.757812 142.382812 217.375 142.851562 217.007812 C 143.320312 216.636719 143.800781 216.285156 144.292969 215.941406 C 144.78125 215.601562 145.285156 215.277344 145.792969 214.964844 C 147.460938 213.953125 148.96875 212.746094 150.320312 211.339844 C 151.671875 209.933594 152.824219 208.378906 153.773438 206.671875 C 154.722656 204.964844 155.4375 203.167969 155.917969 201.273438 C 156.398438 199.378906 156.628906 197.457031 156.613281 195.503906 L 156.613281 195.363281 C 156.613281 194.019531 156.703125 192.683594 156.878906 191.355469 C 157.058594 190.027344 157.320312 188.714844 157.667969 187.417969 C 158.019531 186.125 158.449219 184.855469 158.964844 183.617188 C 159.480469 182.378906 160.074219 181.179688 160.746094 180.023438 C 161.417969 178.863281 162.164062 177.75 162.980469 176.691406 C 163.800781 175.628906 164.683594 174.625 165.632812 173.679688 C 166.582031 172.734375 167.589844 171.855469 168.652344 171.042969 C 169.71875 170.230469 170.832031 169.492188 171.992188 168.824219 C 173.664062 167.851562 175.179688 166.675781 176.542969 165.296875 C 177.90625 163.921875 179.066406 162.390625 180.027344 160.707031 C 180.988281 159.023438 181.714844 157.246094 182.207031 155.367188 C 182.699219 153.492188 182.941406 151.585938 182.933594 149.644531 C 182.933594 149.328125 182.933594 149.003906 182.933594 148.683594 C 182.964844 147.789062 183.039062 146.898438 183.152344 146.011719 C 183.265625 145.128906 183.417969 144.246094 183.609375 143.375 C 183.804688 142.503906 184.035156 141.640625 184.304688 140.789062 C 184.574219 139.9375 184.882812 139.097656 185.226562 138.273438 C 185.570312 137.453125 185.953125 136.644531 186.371094 135.855469 C 186.789062 135.066406 187.242188 134.296875 187.726562 133.546875 C 188.214844 132.800781 188.734375 132.074219 189.285156 131.375 C 189.839844 130.671875 190.421875 129.996094 191.035156 129.347656 C 191.648438 128.699219 192.289062 128.078125 192.957031 127.488281 C 193.625 126.898438 194.320312 126.339844 195.039062 125.808594 C 195.757812 125.28125 196.5 124.789062 197.261719 124.328125 C 198.023438 123.863281 198.808594 123.441406 199.609375 123.050781 C 200.410156 122.660156 201.226562 122.304688 202.0625 121.988281 C 202.894531 121.671875 203.742188 121.394531 204.601562 121.15625 C 205.457031 120.914062 206.324219 120.714844 207.203125 120.554688 C 208.078125 120.390625 208.960938 120.269531 209.847656 120.1875 C 210.46875 120.136719 211.058594 120.246094 211.617188 120.523438 C 213.292969 121.359375 214.878906 122.351562 216.367188 123.492188 C 216.4375 123.550781 216.484375 123.625 216.519531 123.710938 C 216.550781 123.796875 216.558594 123.882812 216.542969 123.972656 C 216.53125 124.0625 216.496094 124.144531 216.4375 124.21875 C 216.382812 124.289062 216.3125 124.34375 216.230469 124.378906 Z M 216.230469 124.378906 " fill-opacity="1" fill-rule="nonzero"/><path fill="#a62525" d="M 184.527344 259.425781 L 179.25 259.367188 C 179.597656 227.953125 164.914062 221.320312 164.765625 221.261719 L 166.757812 216.363281 C 167.5 216.660156 184.917969 224.074219 184.527344 259.425781 Z M 184.527344 259.425781 " fill-opacity="1" fill-rule="nonzero"/><path fill="#a62525" d="M 237.75 250.460938 L 232.472656 250.402344 C 232.890625 212.59375 215.296875 205.066406 215.117188 205 L 217.085938 200.089844 C 217.945312 200.433594 238.207031 209.070312 237.75 250.460938 Z M 237.75 250.460938 " fill-opacity="1" fill-rule="nonzero"/><path fill="#ffc5c5" d="M 220.101562 267.851562 L 221.320312 272.578125 C 221.5 273.21875 221.761719 273.824219 222.109375 274.390625 C 222.453125 274.960938 222.867188 275.46875 223.351562 275.921875 C 223.835938 276.378906 224.375 276.757812 224.964844 277.0625 C 225.550781 277.367188 226.171875 277.585938 226.820312 277.722656 L 231.867188 278.867188 L 226.820312 280.007812 C 226.171875 280.144531 225.550781 280.363281 224.964844 280.667969 C 224.375 280.972656 223.835938 281.355469 223.351562 281.808594 C 222.867188 282.261719 222.453125 282.773438 222.109375 283.339844 C 221.761719 283.90625 221.5 284.511719 221.320312 285.152344 L 220.101562 289.875 L 218.882812 285.152344 C 218.703125 284.511719 218.441406 283.90625 218.097656 283.339844 C 217.753906 282.773438 217.339844 282.261719 216.855469 281.808594 C 216.367188 281.355469 215.832031 280.972656 215.242188 280.667969 C 214.652344 280.363281 214.035156 280.144531 213.382812 280.007812 L 208.339844 278.867188 L 213.382812 277.722656 C 214.035156 277.585938 214.652344 277.367188 215.242188 277.0625 C 215.832031 276.757812 216.367188 276.378906 216.855469 275.921875 C 217.339844 275.46875 217.753906 274.960938 218.097656 274.390625 C 218.441406 273.824219 218.703125 273.21875 218.882812 272.578125 Z M 220.101562 267.851562 " fill-opacity="1" fill-rule="nonzero"/><g clip-path="url(#506f5271df)"><g clip-path="url(#647b235fe9)"><g clip-path="url(#439bdc7b8a)"><path fill="#a62525" d="M 164.644531 229.855469 C 135.242188 218.296875 109.941406 201.421875 93.429688 182.351562 C 85.375 173.054688 79.839844 163.738281 76.996094 154.65625 C 74 145.226562 74.0625 136.4375 77.152344 128.574219 C 80.246094 120.710938 86.183594 114.234375 94.785156 109.335938 C 103.074219 104.632812 113.46875 101.578125 125.679688 100.246094 C 150.773438 97.554688 180.789062 102.425781 210.191406 113.984375 C 239.59375 125.542969 264.890625 142.414062 281.402344 161.488281 C 289.460938 170.785156 294.996094 180.101562 297.839844 189.179688 C 300.800781 198.628906 300.75 207.390625 297.648438 215.277344 C 294.550781 223.164062 288.621094 229.617188 280.015625 234.515625 C 271.726562 239.222656 261.332031 242.273438 249.121094 243.605469 C 224.039062 246.273438 194.046875 241.410156 164.644531 229.855469 Z M 209.828125 114.90625 C 149.535156 91.203125 90.425781 97.507812 78.070312 128.9375 C 65.71875 160.363281 104.707031 205.230469 165.003906 228.933594 C 225.300781 252.636719 284.410156 246.328125 296.761719 214.902344 C 309.117188 183.476562 270.125 138.605469 209.828125 114.90625 Z M 209.828125 114.90625 " fill-opacity="1" fill-rule="nonzero"/></g></g></g><g clip-path="url(#dd5b03e1c5)"><g clip-path="url(#eb8df0183a)"><g clip-path="url(#5f70aeb691)"><path fill="#25a6a6" d="M 83.527344 167.25 C 80.253906 162.152344 79.136719 161.695312 73.222656 163.027344 C 78.324219 159.75 78.78125 158.632812 77.449219 152.722656 C 80.722656 157.820312 81.839844 158.277344 87.753906 156.945312 C 82.65625 160.222656 82.195312 161.339844 83.527344 167.25 Z M 83.527344 167.25 " fill-opacity="1" fill-rule="nonzero"/></g></g></g><g clip-path="url(#26abb2d85f)"><g clip-path="url(#0568a78b5a)"><g clip-path="url(#60672d1490)"><path fill="#25a6a6" d="M 296.507812 188.34375 C 293.234375 183.246094 292.117188 182.785156 286.203125 184.117188 C 291.300781 180.84375 291.761719 179.726562 290.429688 173.8125 C 293.703125 178.914062 294.820312 179.371094 300.734375 178.039062 C 295.636719 181.3125 295.175781 182.429688 296.507812 188.34375 Z M 296.507812 188.34375 " fill-opacity="1" fill-rule="nonzero"/></g></g></g><g fill="#25a6a6" fill-opacity="1"><g transform="translate(146.172703, 67.362751)"><g><path d="M 7.714844 0 C 10.257812 0 10.976562 -1.535156 10.976562 -2.792969 C 10.976562 -8.84375 2.980469 -13.234375 2.980469 -16.496094 C 2.980469 -16.875 3.167969 -17.03125 3.449219 -17.03125 C 4.515625 -17.03125 5.425781 -14.460938 12.199219 -14.460938 C 19.007812 -14.460938 20.292969 -17.03125 21.359375 -17.03125 C 21.640625 -17.03125 21.828125 -16.875 21.828125 -16.496094 C 21.828125 -13.234375 13.832031 -8.84375 13.832031 -2.792969 C 13.832031 -1.535156 14.554688 0 17.09375 0 L 24.496094 0 C 23.648438 -0.847656 23.398438 -1.914062 23.398438 -3.699219 L 23.398438 -27.664062 C 23.398438 -29.453125 23.648438 -30.519531 24.496094 -31.363281 L 16.183594 -31.363281 C 15.398438 -31.363281 14.523438 -30.171875 14.523438 -29.074219 C 14.523438 -23.367188 21.828125 -24.277344 21.828125 -21.140625 C 21.828125 -20.828125 21.578125 -20.511719 21.234375 -20.511719 C 19.949219 -20.511719 18.347656 -22.675781 12.328125 -22.675781 C 6.273438 -22.675781 4.863281 -20.511719 3.574219 -20.511719 C 3.230469 -20.511719 2.980469 -20.828125 2.980469 -21.140625 C 2.980469 -24.277344 10.289062 -23.367188 10.289062 -29.074219 C 10.289062 -30.171875 9.410156 -31.363281 8.625 -31.363281 L 0.3125 -31.363281 C 1.160156 -30.519531 1.410156 -29.453125 1.410156 -27.664062 L 1.410156 -3.699219 C 1.410156 -1.914062 1.160156 -0.847656 0.3125 0 Z M 7.714844 0 "/></g></g></g><g fill="#25a6a6" fill-opacity="1"><g transform="translate(170.977919, 67.362751)"><g><path d="M 0.785156 -10.382812 C 0.785156 -4.203125 6.242188 0.46875 12.265625 0.46875 C 18.285156 0.46875 20.953125 -3.796875 20.953125 -6.179688 C 20.953125 -6.710938 20.667969 -6.835938 20.449219 -6.835938 C 19.824219 -6.835938 19.351562 -5.207031 16.371094 -5.207031 C 12.765625 -5.207031 7.714844 -8.4375 7.714844 -9.566406 C 7.714844 -10.097656 8.125 -10.066406 8.4375 -10.066406 C 13.957031 -10.066406 20.796875 -8.84375 20.796875 -14.050781 C 20.796875 -18.378906 17.628906 -22.425781 12.042969 -22.425781 C 4.703125 -22.425781 0.785156 -17.25 0.785156 -10.382812 Z M 4.296875 -16.121094 C 4.296875 -17.910156 6.148438 -19.007812 7.902344 -19.007812 C 10.539062 -19.007812 14.300781 -17.1875 14.300781 -13.925781 C 14.300781 -11.824219 10.820312 -11.574219 7.871094 -11.574219 C 5.332031 -11.574219 4.296875 -13.894531 4.296875 -16.121094 Z M 4.296875 -16.121094 "/></g></g></g><g fill="#25a6a6" fill-opacity="1"><g transform="translate(192.553132, 67.362751)"><g><path d="M 0.3125 0 L 10.820312 0 C 9.972656 -0.847656 9.722656 -1.914062 9.722656 -3.699219 L 9.722656 -12.230469 C 9.722656 -13.957031 10.097656 -16.339844 12.734375 -16.339844 C 15.777344 -16.339844 15.429688 -13.582031 16.78125 -13.582031 C 17.34375 -13.582031 18.066406 -15.242188 18.945312 -16.96875 C 19.730469 -18.535156 20.636719 -20.167969 20.636719 -20.542969 C 20.636719 -21.765625 18.378906 -22.425781 16.71875 -22.425781 C 11.792969 -22.425781 11.039062 -18.066406 9.941406 -18.066406 C 9.816406 -18.066406 9.722656 -18.066406 9.722656 -18.820312 L 9.722656 -19.351562 C 9.722656 -20.953125 9.347656 -21.957031 8 -21.957031 L 0.3125 -21.957031 C 1.160156 -21.109375 1.410156 -20.042969 1.410156 -18.253906 L 1.410156 -3.699219 C 1.410156 -1.914062 1.160156 -0.847656 0.3125 0 Z M 0.3125 0 "/></g></g></g><g fill="#25a6a6" fill-opacity="1"><g transform="translate(213.501152, 67.362751)"><g><path d="M 0.46875 -15.683594 C 0.46875 -9.535156 7.089844 -7.527344 12.167969 -7.527344 C 14.554688 -7.527344 16.402344 -7.933594 17.5625 -7.933594 C 18.410156 -7.933594 18.882812 -7.714844 18.882812 -6.964844 C 18.882812 -5.332031 16.625 -4.078125 14.460938 -4.078125 C 8.71875 -4.078125 5.519531 -8.21875 3.636719 -8.21875 C 2.351562 -8.21875 0.628906 -3.699219 0.628906 -2.351562 C 0.628906 -0.753906 6.867188 0.46875 11.164062 0.46875 C 14.710938 0.46875 20.574219 -1.316406 20.574219 -7.121094 C 20.574219 -13.171875 14.398438 -14.804688 8.84375 -15.777344 C 6.210938 -16.246094 4.109375 -16.875 4.109375 -18.410156 C 4.109375 -19.980469 5.519531 -20.574219 6.617188 -20.574219 C 10.539062 -20.574219 13.550781 -14.398438 17.722656 -14.398438 C 18.851562 -14.398438 20.636719 -16.5625 20.636719 -18.664062 C 20.636719 -20.480469 16.089844 -22.425781 10.570312 -22.425781 C 5.832031 -22.425781 0.46875 -20.921875 0.46875 -15.683594 Z M 0.46875 -15.683594 "/></g></g></g><g fill="#25a6a6" fill-opacity="1"><g transform="translate(117.67371, 296.458388)"><g><path d="M 6.328125 7.09375 C 5.210938 5.9375 4.488281 4.632812 4.15625 3.1875 C 3.820312 1.738281 3.878906 0.296875 4.328125 -1.140625 C 4.785156 -2.578125 5.597656 -3.863281 6.765625 -5 C 7.929688 -6.125 9.242188 -6.941406 10.703125 -7.453125 C 12.171875 -7.972656 13.664062 -8.070312 15.1875 -7.75 C 16.71875 -7.4375 18.117188 -6.628906 19.390625 -5.328125 C 20.648438 -4.023438 21.445312 -2.484375 21.78125 -0.703125 L 22.640625 -1.71875 L 23.578125 -0.765625 L 19.484375 3.21875 L 18.859375 2.578125 C 19.835938 1.390625 20.320312 0.171875 20.3125 -1.078125 C 20.300781 -2.335938 19.796875 -3.484375 18.796875 -4.515625 C 17.984375 -5.335938 17.003906 -5.867188 15.859375 -6.109375 C 14.722656 -6.347656 13.53125 -6.25 12.28125 -5.8125 C 11.039062 -5.382812 9.859375 -4.617188 8.734375 -3.515625 C 7.648438 -2.460938 6.882812 -1.3125 6.4375 -0.0625 C 5.988281 1.1875 5.875 2.398438 6.09375 3.578125 C 6.320312 4.765625 6.859375 5.789062 7.703125 6.65625 C 8.472656 7.445312 9.382812 8.035156 10.4375 8.421875 C 11.488281 8.816406 12.570312 8.929688 13.6875 8.765625 L 13.765625 9.59375 C 12.140625 9.832031 10.707031 9.695312 9.46875 9.1875 C 8.238281 8.675781 7.191406 7.976562 6.328125 7.09375 Z M 6.328125 7.09375 "/></g></g></g><g fill="#25a6a6" fill-opacity="1"><g transform="translate(144.233214, 318.809009)"><g><path d="M 1.296875 -0.171875 C 1.722656 0.0351562 2.082031 0.0820312 2.375 -0.03125 C 2.664062 -0.15625 2.910156 -0.375 3.109375 -0.6875 C 3.304688 -1.007812 3.582031 -1.523438 3.9375 -2.234375 L 6.453125 -7.25 C 6.753906 -7.863281 7.019531 -8.316406 7.25 -8.609375 L 5.65625 -9.359375 L 6.109375 -10.25 L 6.796875 -9.90625 C 7.347656 -9.625 7.769531 -9.46875 8.0625 -9.4375 C 8.363281 -9.414062 8.675781 -9.445312 9 -9.53125 L 9.640625 -9.21875 C 9.410156 -8.613281 9.082031 -7.875 8.65625 -7 C 9.332031 -7.40625 10.125 -7.671875 11.03125 -7.796875 C 11.945312 -7.929688 12.773438 -7.8125 13.515625 -7.4375 C 13.953125 -7.21875 14.257812 -6.921875 14.4375 -6.546875 C 14.613281 -6.171875 14.585938 -5.753906 14.359375 -5.296875 C 14.242188 -5.054688 14.035156 -4.863281 13.734375 -4.71875 C 13.429688 -4.582031 13.113281 -4.597656 12.78125 -4.765625 C 12.457031 -4.921875 12.253906 -5.171875 12.171875 -5.515625 C 12.085938 -5.859375 12.15625 -6.191406 12.375 -6.515625 C 11.8125 -6.804688 11.132812 -6.875 10.34375 -6.71875 C 9.5625 -6.5625 8.796875 -6.21875 8.046875 -5.6875 L 5.359375 -0.234375 C 5.023438 0.421875 4.742188 0.898438 4.515625 1.203125 L 5.9375 1.828125 L 5.484375 2.734375 L 0.96875 0.484375 Z M 1.296875 -0.171875 "/></g></g></g><g fill="#25a6a6" fill-opacity="1"><g transform="translate(170.337391, 329.008748)"><g><path d="M 1.953125 7.046875 C 1.410156 6.960938 0.988281 6.765625 0.6875 6.453125 C 0.382812 6.148438 0.265625 5.757812 0.328125 5.28125 C 0.378906 4.976562 0.523438 4.722656 0.765625 4.515625 C 1.015625 4.304688 1.296875 4.222656 1.609375 4.265625 C 1.941406 4.316406 2.164062 4.46875 2.28125 4.71875 C 2.40625 4.976562 2.453125 5.226562 2.421875 5.46875 C 2.398438 5.613281 2.367188 5.722656 2.328125 5.796875 C 2.378906 5.835938 2.472656 5.867188 2.609375 5.890625 C 2.804688 5.921875 3.03125 5.867188 3.28125 5.734375 C 3.53125 5.609375 3.765625 5.410156 3.984375 5.140625 C 4.441406 4.566406 5.210938 3.257812 6.296875 1.21875 L 3.734375 -7.46875 C 3.273438 -9.039062 3.019531 -10.234375 2.96875 -11.046875 L 1.78125 -11.15625 L 1.9375 -12.15625 L 6.984375 -11.390625 L 6.875 -10.671875 L 6.765625 -10.6875 C 5.992188 -10.75 5.5625 -10.476562 5.46875 -9.875 C 5.40625 -9.46875 5.507812 -8.8125 5.78125 -7.90625 L 7.703125 -1.34375 C 8.398438 -2.65625 9.40625 -4.59375 10.71875 -7.15625 C 11.507812 -8.675781 12.039062 -9.515625 12.3125 -9.671875 L 10.609375 -9.828125 L 10.765625 -10.828125 L 14.609375 -10.234375 L 14.5 -9.515625 C 13.90625 -9.390625 13.421875 -9.113281 13.046875 -8.6875 C 12.679688 -8.269531 12.242188 -7.601562 11.734375 -6.6875 L 7.421875 1.34375 C 6.585938 2.894531 5.914062 4.0625 5.40625 4.84375 C 4.894531 5.625 4.363281 6.210938 3.8125 6.609375 C 3.257812 7.003906 2.640625 7.148438 1.953125 7.046875 Z M 1.953125 7.046875 "/></g></g></g><g fill="#25a6a6" fill-opacity="1"><g transform="translate(200.848896, 330.776247)"><g><path d="M 1.875 5.296875 C 2.34375 5.203125 2.65625 5.019531 2.8125 4.75 C 2.96875 4.476562 3.03125 4.164062 3 3.8125 C 2.96875 3.457031 2.878906 2.875 2.734375 2.0625 L 0.578125 -9.640625 C 0.453125 -10.304688 0.390625 -10.832031 0.390625 -11.21875 L -1.3125 -10.8125 L -1.5 -11.828125 C -0.539062 -12.003906 0.0976562 -12.175781 0.421875 -12.34375 C 0.753906 -12.519531 1.015625 -12.742188 1.203125 -13.015625 L 1.921875 -13.140625 C 2.140625 -12.367188 2.257812 -11.945312 2.28125 -11.875 C 2.675781 -12.382812 3.1875 -12.835938 3.8125 -13.234375 C 4.4375 -13.628906 5.082031 -13.890625 5.75 -14.015625 C 6.695312 -14.191406 7.617188 -14.109375 8.515625 -13.765625 C 9.421875 -13.429688 10.207031 -12.851562 10.875 -12.03125 C 11.539062 -11.21875 11.988281 -10.210938 12.21875 -9.015625 C 12.46875 -7.679688 12.40625 -6.4375 12.03125 -5.28125 C 11.664062 -4.132812 11.066406 -3.179688 10.234375 -2.421875 C 9.398438 -1.671875 8.4375 -1.191406 7.34375 -0.984375 C 6.226562 -0.773438 5.207031 -0.863281 4.28125 -1.25 L 5.046875 2.78125 C 5.179688 3.507812 5.242188 4.066406 5.234375 4.453125 L 6.75 4.078125 L 6.953125 5.078125 L 2.015625 6.015625 Z M 7.109375 -1.9375 C 7.867188 -2.082031 8.476562 -2.441406 8.9375 -3.015625 C 9.40625 -3.585938 9.710938 -4.320312 9.859375 -5.21875 C 10.015625 -6.113281 9.988281 -7.09375 9.78125 -8.15625 C 9.507812 -9.613281 8.96875 -10.785156 8.15625 -11.671875 C 7.351562 -12.566406 6.335938 -12.894531 5.109375 -12.65625 C 4.578125 -12.5625 4.082031 -12.335938 3.625 -11.984375 C 3.175781 -11.640625 2.800781 -11.238281 2.5 -10.78125 C 2.539062 -10.664062 2.644531 -10.171875 2.8125 -9.296875 L 4.09375 -2.34375 C 5.039062 -1.875 6.046875 -1.738281 7.109375 -1.9375 Z M 7.109375 -1.9375 "/></g></g></g><g fill="#25a6a6" fill-opacity="1"><g transform="translate(231.594154, 321.766961)"><g><path d="M 5.203125 -2.40625 C 3.222656 -1.320312 1.507812 -2.109375 0.0625 -4.765625 L -3.328125 -11.046875 L -4.96875 -10.109375 L -5.484375 -11.03125 C -4.796875 -11.4375 -4.378906 -12.078125 -4.234375 -12.953125 C -4.085938 -13.828125 -4.113281 -14.71875 -4.3125 -15.625 L -3.578125 -16.015625 L -1.921875 -12.984375 L 1.703125 -14.984375 L 2.171875 -14.15625 L -1.421875 -12.09375 C -0.222656 -9.894531 0.597656 -8.367188 1.046875 -7.515625 C 1.503906 -6.660156 1.765625 -6.1875 1.828125 -6.09375 C 2.390625 -5.070312 2.925781 -4.378906 3.4375 -4.015625 C 3.957031 -3.660156 4.519531 -3.648438 5.125 -3.984375 C 5.5 -4.179688 5.804688 -4.492188 6.046875 -4.921875 C 6.285156 -5.359375 6.429688 -5.847656 6.484375 -6.390625 L 7.328125 -6.265625 C 7.222656 -5.109375 6.96875 -4.242188 6.5625 -3.671875 C 6.164062 -3.109375 5.710938 -2.6875 5.203125 -2.40625 Z M 5.203125 -2.40625 "/></g></g></g><g fill="#25a6a6" fill-opacity="1"><g transform="translate(253.9621, 306.777833)"><g><path d="M 5.203125 -4.984375 C 4.421875 -4.148438 3.515625 -3.570312 2.484375 -3.25 C 1.453125 -2.925781 0.398438 -2.890625 -0.671875 -3.140625 C -1.742188 -3.390625 -2.71875 -3.925781 -3.59375 -4.75 C -4.519531 -5.625 -5.175781 -6.613281 -5.5625 -7.71875 C -5.945312 -8.832031 -6.035156 -9.9375 -5.828125 -11.03125 C -5.628906 -12.125 -5.132812 -13.09375 -4.34375 -13.9375 C -3.570312 -14.757812 -2.660156 -15.328125 -1.609375 -15.640625 C -0.554688 -15.960938 0.5 -16 1.5625 -15.75 C 2.632812 -15.5 3.597656 -14.976562 4.453125 -14.1875 C 5.359375 -13.320312 6.007812 -12.328125 6.40625 -11.203125 C 6.800781 -10.085938 6.894531 -8.976562 6.6875 -7.875 C 6.488281 -6.78125 5.992188 -5.816406 5.203125 -4.984375 Z M 4.625 -5.796875 C 5.4375 -6.671875 5.675781 -7.648438 5.34375 -8.734375 C 5.019531 -9.816406 4.328125 -10.859375 3.265625 -11.859375 C 2.054688 -12.992188 0.8125 -13.738281 -0.46875 -14.09375 C -1.757812 -14.457031 -2.820312 -14.191406 -3.65625 -13.296875 C -4.488281 -12.410156 -4.75 -11.398438 -4.4375 -10.265625 C -4.132812 -9.128906 -3.453125 -8.0625 -2.390625 -7.0625 C -1.617188 -6.34375 -0.804688 -5.773438 0.046875 -5.359375 C 0.910156 -4.953125 1.742188 -4.769531 2.546875 -4.8125 C 3.347656 -4.851562 4.039062 -5.179688 4.625 -5.796875 Z M 4.625 -5.796875 "/></g></g></g></svg>